Coordinates
version=1
nRows=4
nColumns=63
inDegrees=yes

Units are S.I. units (second, meters, Newtons, ...)
If the header above contains a line with 'inDegrees', this indicates whether rotational values are in degrees (yes) or radians (no).

endheader
time	pelvis_tilt	pelvis_list	pelvis_rotation	pelvis_tx	pelvis_ty	pelvis_tz	hip_flexion_r	hip_adduction_r	hip_rotation_r	knee_angle_r	knee_angle_r_beta	ankle_angle_r	subtalar_angle_r	mtp_angle_r	hip_flexion_l	hip_adduction_l	hip_rotation_l	knee_angle_l	knee_angle_l_beta	ankle_angle_l	subtalar_angle_l	mtp_angle_l	L5_S1_Flex_Ext	L5_S1_Lat_Bending	L5_S1_axial_rotation	L4_L5_Flex_Ext	L4_L5_Lat_Bending	L4_L5_axial_rotation	L3_L4_Flex_Ext	L3_L4_Lat_Bending	L3_L4_axial_rotation	L2_L3_Flex_Ext	L2_L3_Lat_Bending	L2_L3_axial_rotation	L1_L2_Flex_Ext	L1_L2_Lat_Bending	L1_L2_axial_rotation	L1_T12_Flex_Ext	L1_T12_Lat_Bending	L1_T12_axial_rotation	Abs_r3	Abs_r2	Abs_r1	Abs_t1	Abs_t2	neck_flexion	neck_bending	neck_rotation	arm_flex_r	arm_add_r	arm_rot_r	elbow_flex_r	pro_sup_r	wrist_flex_r	wrist_dev_r	arm_flex_l	arm_add_l	arm_rot_l	elbow_flex_l	pro_sup_l	wrist_flex_l	wrist_dev_l
      0.00000000	     -1.23569060	     -6.58607226	    101.33178105	      0.27474738	      0.83031916	      0.81286083	     -2.15185009	     -0.23415418	     -0.97976895	      8.89001999	      0.15516012	     26.01079589	     -3.30467223	      0.00000000	      1.61252257	      0.61775505	      8.42400017	     11.15839280	      0.19475069	     29.44865104	    -10.03205349	      0.00000000	     -0.18513978	     -0.25424509	      2.08965188	     -0.34382309	     -0.33814597	      2.22025512	     -0.30416615	     -0.61817151	      2.22025512	     -0.21159626	     -0.61817151	      1.82844539	     -0.17192080	     -0.51845658	      1.69784215	     -0.10578887	     -0.39382564	      1.56723891	     -1.32243496	     -2.87607129	     11.62201686	      0.00000000	      0.00000000	     22.26293092	     -2.06295911	     -8.55244203	     10.81460493	     -9.83652972	     56.65697983	     41.14392893	     88.56991416	     -2.69137854	      4.45942278	     15.26034945	     -6.73245836	     64.86246729	     44.69961331	     50.50647204	     -5.53137041	     26.53879891
      0.01694915	     -0.93226979	     -6.09905528	    101.15095972	      0.27484137	      0.83070221	      0.80896465	     -3.20997662	      0.26352428	      0.19284567	      7.93810508	      0.13854607	     26.12664998	     -3.58086784	      0.00000000	      0.76755993	      0.19590343	      8.58531140	     10.86678738	      0.18966122	     29.61952354	    -10.45352698	      0.00000000	     -0.20206234	     -0.20263156	      2.11332940	     -0.37524998	     -0.26949998	      2.24541249	     -0.33196822	     -0.49267838	      2.24541249	     -0.23093705	     -0.49267838	      1.84916322	     -0.18763509	     -0.41320628	      1.71708014	     -0.11545842	     -0.31387629	      1.58499705	     -1.44331110	     -2.29220874	     11.75370412	      0.00000000	      0.00000000	     22.04014176	     -3.05288284	     -9.44002012	     11.64134674	    -10.19889962	     60.96396531	     40.55397627	     88.61557618	     -6.39681356	      1.37872838	     16.00050425	     -6.13780130	     67.80664441	     42.95718161	     49.29347765	     -4.14166396	     23.51546130
      0.03389831	     -0.68526991	     -5.76199241	    100.98813022	      0.27498025	      0.83084874	      0.80578590	     -4.08600830	      0.61073507	      0.82006169	      7.02919875	      0.12268266	     26.14337609	     -3.27467430	      0.00000000	      0.19029781	     -0.15002263	      8.52170832	     10.74060719	      0.18745896	     29.94435340	    -10.49827106	      0.00000000	     -0.21009404	     -0.16606261	      2.11530180	     -0.39016564	     -0.22086327	      2.24750816	     -0.34516349	     -0.40376463	      2.24750816	     -0.24011648	     -0.40376463	      1.85088908	     -0.19509332	     -0.33863487	      1.71868271	     -0.12004773	     -0.25723098	      1.58647635	     -1.50068070	     -1.87853346	     11.76467403	      0.00000000	      0.00000000	     22.05933631	     -3.57601121	    -10.00607109	     11.58097463	    -10.12131408	     61.66995882	     40.38209424	     88.66630520	     -6.74074811	      0.91766693	     16.04817462	     -5.70523063	     68.42337294	     42.09819141	     48.88392244	     -4.18146091	     22.84380202
      0.05084746	     -0.57157524	     -5.42736521	    100.44975748	      0.27594921	      0.83118188	      0.80376235	     -4.62484763	      0.83604274	      2.40347127	      6.66810072	      0.11638031	     26.00133317	     -4.25921128	      0.00000000	     -0.36132767	     -0.40818169	      7.49939961	     10.59455233	      0.18490982	     30.29901934	     -9.90710996	      0.00000000	     -0.23578516	     -0.15050504	      2.27068693	     -0.43787661	     -0.20017170	      2.41260486	     -0.38737143	     -0.36593794	      2.41260486	     -0.26947886	     -0.36593794	      1.98685106	     -0.21895010	     -0.30690987	      1.84493313	     -0.13472764	     -0.23313230	      1.70301520	     -1.68418980	     -1.70254306	     12.62887950	      0.00000000	      0.00000000	     21.82792941	     -4.18986112	    -11.20303095	     11.34016117	    -10.06743688	     62.12651952	     40.18657194	     88.54779464	     -8.55235465	     -0.53113827	     17.84227600	     -5.57044997	     74.11492414	     41.02795019	     41.95369982	     -4.07220414	     19.52840996
